<?xml version="1.0" standalone="no"?>
<!DOCTYPE svg PUBLIC "-//W3C//DTD SVG 20010904//EN"
 "http://www.w3.org/TR/2001/REC-SVG-20010904/DTD/svg10.dtd">
<svg version="1.0" xmlns="http://www.w3.org/2000/svg"
 width="400.000000pt" height="400.000000pt" viewBox="0 0 400.000000 400.000000"
 preserveAspectRatio="xMidYMid meet">
<metadata>
Created by potrace 1.14, written by Peter Selinger 2001-2017
</metadata>
<g transform="translate(0.000000,400.000000) scale(0.100000,-0.100000)"
fill="#000000" stroke="none">
<path d="M0 2000 l0 -2000 2000 0 2000 0 0 2000 0 2000 -2000 0 -2000 0 0
-2000z m2687 880 l673 -665 0 -218 0 -219 -47 40 c-27 22 -64 57 -83 77 -19
20 -304 302 -632 627 l-598 590 -675 -667 -674 -667 -3 219 -3 218 115 117
c283 287 1235 1218 1244 1215 5 -2 312 -302 683 -667z m-230 -668 l452 -447 4
-248 3 -248 -467 467 -467 467 -104 -101 -103 -101 113 -113 112 -113 0 -225
0 -225 -225 225 -225 225 -113 -113 -112 -114 338 -331 337 -332 0 -223 0
-224 -456 449 -456 448 6 220 6 220 448 442 c246 244 449 443 452 443 3 0 208
-202 457 -448z"/>
</g>
</svg>
