<?xml version="1.0" encoding="utf-8"?>
<svg viewBox="110.1 305.36 1697.85 441.54" xmlns="http://www.w3.org/2000/svg">
  <defs>
    <style type="text/css">
	.st0{fill-rule:evenodd;clip-rule:evenodd;fill:#FFFFFF;}
</style>
  </defs>
  <g>
    <g>
      <polygon class="st0" points="585.09,688.26 637.13,688.26 637.13,676.79 597.68,676.79 597.68,658.77 633.4,658.77 633.4,647.3 &#10;&#9;&#9;&#9;597.68,647.3 597.68,630.59 637.13,630.59 637.13,619.12 585.09,619.12 &#9;&#9;"/>
      <polygon class="st0" points="618.54,470.29 713.54,470.29 713.54,439.79 618.54,439.79 618.54,393.23 723.44,393.23 &#10;&#9;&#9;&#9;723.44,362.72 585.09,362.72 585.09,515.91 618.54,549.83 &#9;&#9;"/>
      <path class="st0" d="M1017.64,457.72c0-51.64-44.15-94.99-96.33-94.99c-52.45,0-96.6,43.35-96.6,94.99 c0,51.65,44.15,95.26,96.6,95.26C973.49,552.98,1017.64,509.36,1017.64,457.72z M858.69,457.72c0-35.05,28.63-64.49,62.62-64.49 c33.72,0,62.08,29.44,62.08,64.49c0,35.32-28.36,64.76-62.08,64.76C887.32,522.48,858.69,493.04,858.69,457.72z"/>
      <path class="st0" d="M1216.84,393.29c17.66,0,35.16,9,46.4,22.11l22.91-22.91c-17.66-18.2-42.28-29.7-69.31-29.7 c-52.45,0-96.6,43.35-96.6,94.99c0,51.65,44.15,95.26,96.6,95.26c27.03,0,51.64-11.51,69.31-29.97l-22.46-22.47 c-11.51,13.11-28.92,21.93-46.85,21.93c-33.98,0-62.62-29.44-62.62-64.76C1154.23,422.73,1182.86,393.29,1216.84,393.29z"/>
      <path class="st0" d="M1553.46,366h-33.18v104.36c0,30.51-19.8,52.45-47.9,52.45c-27.83,0-47.63-21.94-47.63-52.45V366h-33.45 v105.43c0,47.9,33.72,81.62,81.08,81.62c47.63,0,81.08-33.72,81.08-81.62V366z"/>
      <polygon class="st0" points="730.11,667.73 693.57,619.12 680.99,619.12 680.99,688.26 693.57,688.26 693.57,639.65 &#10;&#9;&#9;&#9;730.11,688.26 742.58,688.26 742.58,619.12 730.11,619.12 &#9;&#9;"/>
      <polygon class="st0" points="788.68,630.59 810.82,630.59 810.82,688.26 823.3,688.26 823.3,630.59 845.44,630.59 845.44,619.12 &#10;&#9;&#9;&#9;788.68,619.12 &#9;&#9;"/>
      <polygon class="st0" points="888.55,688.26 940.58,688.26 940.58,676.79 901.13,676.79 901.13,658.77 936.86,658.77 936.86,647.3 &#10;&#9;&#9;&#9;901.13,647.3 901.13,630.59 940.58,630.59 940.58,619.12 888.55,619.12 &#9;&#9;"/>
      <path class="st0" d="M1040.54,642.06c0-13.48-11.07-22.95-25.87-22.95h-30.09v69.14h12.58v-23.25h13.38l16.3,23.25h14.29 l-17.31-24.56C1033.8,660.58,1040.54,652.53,1040.54,642.06z M997.16,653.43v-22.74h16.1c8.55,0,14.49,4.33,14.49,11.37 c0,7.04-5.94,11.37-14.49,11.37H997.16z"/>
      <polygon class="st0" points="1076.77,630.59 1098.91,630.59 1098.91,688.26 1111.39,688.26 1111.39,630.59 1133.53,630.59 &#10;&#9;&#9;&#9;1133.53,619.12 1076.77,619.12 &#9;&#9;"/>
      <polygon class="st0" points="1186.32,619.12 1157.44,688.26 1171.43,688.26 1193.37,635.82 1215.31,688.26 1229.19,688.26 &#10;&#9;&#9;&#9;1200.31,619.12 &#9;&#9;"/>
      <rect x="1268.83" y="619.12" class="st0" width="12.48" height="69.14"/>
      <polygon class="st0" points="1376.71,667.73 1340.17,619.12 1327.6,619.12 1327.6,688.26 1340.17,688.26 1340.17,639.65 &#10;&#9;&#9;&#9;1376.71,688.26 1389.19,688.26 1389.19,619.12 1376.71,619.12 &#9;&#9;"/>
      <polygon class="st0" points="1469.33,661.29 1446.59,619.12 1434.01,619.12 1434.01,688.26 1446.59,688.26 1446.59,642.06 &#10;&#9;&#9;&#9;1469.33,684.23 1492.17,642.06 1492.17,688.26 1504.66,688.26 1504.66,619.12 1492.17,619.12 &#9;&#9;"/>
      <polygon class="st0" points="1549.24,688.26 1601.28,688.26 1601.28,676.79 1561.82,676.79 1561.82,658.77 1597.55,658.77 &#10;&#9;&#9;&#9;1597.55,647.3 1561.82,647.3 1561.82,630.59 1601.28,630.59 1601.28,619.12 1549.24,619.12 &#9;&#9;"/>
      <polygon class="st0" points="1694.39,667.73 1657.85,619.12 1645.27,619.12 1645.27,688.26 1657.85,688.26 1657.85,639.65 &#10;&#9;&#9;&#9;1694.39,688.26 1706.86,688.26 1706.86,619.12 1694.39,619.12 &#9;&#9;"/>
      <polygon class="st0" points="1749.84,630.59 1771.98,630.59 1771.98,688.26 1784.46,688.26 1784.46,630.59 1806.61,630.59 &#10;&#9;&#9;&#9;1806.61,619.12 1749.84,619.12 &#9;&#9;"/>
    </g>
    <path class="st0" d="M1743.97,442.26c-29.17-6.69-42.81-12.04-42.81-27.03c0-12.85,12.58-24.08,31.04-24.08 c16.92,0,34.04,6.78,49.27,18.9l21.07-21.07l0.58-0.78c-18.46-15.79-40.41-25.69-69.57-25.69c-38.8,0-66.09,23.55-66.09,55.66 c0,34.52,26.49,45.49,64.49,54.32c29.44,6.96,42.55,12.04,42.55,27.29c0,13.11-11.77,24.35-34.52,24.35 c-22.94,0-41.72-8.8-58.02-22.81l-21.63,21.63l-0.09,0.11c20.33,19,47.09,29.7,78.67,29.7c43.89,0,69.04-23.28,69.04-56.19 C1807.92,463.13,1782.23,450.83,1743.97,442.26z"/>
  </g>
  <g>
    <polygon class="st0" points="173.18,557.67 173.18,620.74 299.34,746.9 299.34,683.82 204.72,589.21 236.26,557.67 299.34,620.74 &#10;&#9;&#9;299.34,557.67 267.8,526.13 299.34,494.59 425.49,620.74 425.49,557.67 299.34,431.51 &#9;"/>
    <polygon class="st0" points="110.1,494.59 110.1,557.67 299.34,368.43 488.57,557.67 488.57,494.59 299.33,305.36 &#9;"/>
  </g>
</svg>